<svg width="414" height="728" viewBox="0 0 414 728" fill="none" xmlns="http://www.w3.org/2000/svg">
<path d="M340.507 150.761C251.453 -18.6344 54.3499 100.788 237.08 425.725C302.538 407.619 333.774 385.742 381.737 330.797C380.561 283.493 370.736 233.379 360.446 199.862H410C403.711 185.677 381.007 155.999 340.507 150.761Z" fill="#4961DE"/>
<path d="M340.507 150.761C251.453 -18.6344 54.3498 100.788 237.08 425.725C302.538 407.619 333.774 385.742 381.737 330.797C380.561 283.493 370.736 233.379 360.446 199.862M340.507 150.761C381.007 155.999 403.711 185.677 410 199.862H360.446M340.507 150.761C348.052 165.113 354.799 181.467 360.446 199.862" stroke="#4961DE"/>
<path d="M221.357 167.128C328.277 147.488 318.842 386.444 318.842 386.444C292.927 405.093 277.778 412.28 249.659 419.178C249.659 419.178 114.437 186.769 221.357 167.128Z" fill="white" stroke="white"/>
<path d="M255.948 196.589C233.935 206.409 224.462 204.935 211.922 196.589" stroke="#4961DE" stroke-width="3" stroke-linecap="round"/>
<ellipse rx="12.5788" ry="13.0935" transform="matrix(-1 0 0 1 262.238 144.215)" fill="white"/>
<ellipse rx="12.5788" ry="13.0935" transform="matrix(-1 0 0 1 205.633 144.215)" fill="white"/>
<ellipse rx="9.43412" ry="9.82013" transform="matrix(-1 0 0 1 261.434 147.82)" fill="#4961DE"/>
<ellipse rx="9.43412" ry="9.82013" transform="matrix(-1 0 0 1 204.434 147.82)" fill="#4961DE"/>
<path d="M245.062 270.62C266.753 255.908 307.063 240.088 307.063 240.088L332.38 280.53L219.941 310.705C219.941 310.705 223.371 285.333 245.062 270.62Z" fill="#4961DE" stroke="#4961DE"/>
<path d="M8.9088 527.31C85.8734 421.574 211.034 328 414 328V728H-46.1036C-46.1036 728 -68.0557 633.046 8.9088 527.31Z" fill="#4961DE"/>
<path d="M135.773 601.064C188.634 534.186 274.598 475 414 475V728H97.9893C97.9893 728 82.912 667.942 135.773 601.064Z" fill="#435AD8"/>
<path d="M269.637 668.797C297.065 637.604 341.669 610 414 610V728H250.032C250.032 728 242.209 699.989 269.637 668.797Z" fill="#3951D1"/>
<path d="M54.3465 259C48.7298 255.61 43.4428 246.193 54.3464 238C61.8094 245.107 61.9592 251.892 54.3465 259ZM54.3465 259L49.7779 266H58.9154L54.3465 259Z" stroke="#45DEE8" stroke-width="3"/>
<path d="M54.3465 79C48.7298 75.6098 43.4428 66.1926 54.3464 58C61.8094 65.1074 61.9592 71.8924 54.3465 79ZM54.3465 79L49.7779 86H58.9154L54.3465 79Z" stroke="#45DEE8" stroke-width="3"/>
<path d="M104.346 210C98.7298 206.61 93.4428 197.193 104.346 189C111.809 196.107 111.959 202.892 104.346 210ZM104.346 210L99.7779 217H108.915L104.346 210Z" stroke="#45DEE8" stroke-width="3"/>
<path d="M104.346 309C98.7298 305.61 93.4428 296.193 104.346 288C111.809 295.107 111.959 301.892 104.346 309ZM104.346 309L99.7779 316H108.915L104.346 309Z" stroke="#45DEE8" stroke-width="3"/>
<path d="M54.3465 169C48.7298 165.61 43.4428 156.193 54.3464 148C61.8094 155.107 61.9592 161.892 54.3465 169ZM54.3465 169L49.7779 176H58.9154L54.3465 169Z" stroke="#45DEE8" stroke-width="3"/>
<path d="M103.346 124C97.7298 120.61 92.4428 111.193 103.346 103C110.809 110.107 110.959 116.892 103.346 124ZM103.346 124L98.7779 131H107.915L103.346 124Z" stroke="#45DEE8" stroke-width="3"/>
<path d="M103.346 23C97.7298 19.6098 92.4428 10.1926 103.346 2C110.809 9.10744 110.959 15.8924 103.346 23ZM103.346 23L98.7779 30H107.915L103.346 23Z" stroke="#45DEE8" stroke-width="3"/>
</svg>
