<svg width="80" height="80" viewBox="0 0 80 80" fill="none" xmlns="http://www.w3.org/2000/svg">
<path d="M63.9509 34.7251C49.7914 8.85032 18.4526 27.0918 47.5062 76.7251C57.9138 73.9595 62.8802 70.6177 70.5062 62.2251C70.3193 54.9995 68.7571 47.3447 67.1211 42.2251H75C74 40.0584 70.3902 35.5251 63.9509 34.7251Z" fill="#485FD8"/>
<path d="M63.9509 34.7251C49.7914 8.85032 18.4526 27.0918 47.5062 76.7251C57.9138 73.9595 62.8802 70.6177 70.5062 62.2251C70.3193 54.9995 68.7571 47.3447 67.1211 42.2251M63.9509 34.7251C70.3902 35.5251 74 40.0584 75 42.2251H67.1211M63.9509 34.7251C65.1505 36.9173 66.2231 39.4153 67.1211 42.2251" stroke="#475ED7"/>
<path d="M45.0062 37.2251C62.0062 34.2251 60.5062 70.7251 60.5062 70.7251C56.3857 73.5737 53.9771 74.6714 49.5062 75.725C49.5062 75.725 28.0062 40.2251 45.0062 37.2251Z" fill="white" stroke="white"/>
<path d="M50.5062 41.7251C47.0062 43.2251 45.5 43 43.5062 41.7251" stroke="#4961DE" stroke-linecap="round"/>
<circle r="2" transform="matrix(-1 0 0 1 51.5062 33.7251)" fill="white"/>
<circle r="2" transform="matrix(-1 0 0 1 42.5062 33.7251)" fill="white"/>
<circle r="1.5" transform="matrix(-1 0 0 1 51.0062 34.2251)" fill="#4961DE"/>
<circle r="1.5" transform="matrix(-1 0 0 1 42.0062 34.2251)" fill="#4961DE"/>
<path d="M51.4458 58.7324C54.7971 56.5487 60.7889 53.8378 60.7889 53.8378L63.5186 58.0269L47.0919 63.9567C47.0919 63.9567 48.0945 60.9162 51.4458 58.7324Z" fill="#4961DE" stroke="#4961DE"/>
<circle r="38.5" transform="matrix(-1 0 0 1 40 40)" stroke="#4961DE" stroke-width="3"/>
<path d="M19.0837 38.5C17.2396 37.2892 15.5038 33.9259 19.0836 31C21.5339 33.5384 21.583 35.9616 19.0837 38.5ZM19.0837 38.5L17.5837 41H20.5837L19.0837 38.5Z" stroke="#45DEE8"/>
<path d="M12.0837 33.5C10.2396 32.2892 8.50378 28.9259 12.0836 26C14.5339 28.5384 14.583 30.9616 12.0837 33.5ZM12.0837 33.5L10.5837 36H13.5837L12.0837 33.5Z" stroke="#45DEE8"/>
<path d="M26.0837 33.5C24.2396 32.2892 22.5038 28.9259 26.0836 26C28.5339 28.5384 28.583 30.9616 26.0837 33.5ZM26.0837 33.5L24.5837 36H27.5837L26.0837 33.5Z" stroke="#45DEE8"/>
<circle cx="31.5" cy="44.5" r="1.5" fill="#45DEE8"/>
<circle cx="26" cy="42" r="2" fill="#45DEE8"/>
</svg>
