<svg width="80" height="80" viewBox="0 0 80 80" fill="none" xmlns="http://www.w3.org/2000/svg">
<path d="M16.0491 34.7251C30.2086 8.85032 61.5474 27.0918 32.4938 76.7251C22.0862 73.9595 17.1198 70.6177 9.49378 62.2251C9.68065 54.9995 11.2429 47.3447 12.8789 42.2251H5C6 40.0584 9.60983 35.5251 16.0491 34.7251Z" fill="#485FD8"/>
<path d="M16.0491 34.7251C30.2086 8.85032 61.5474 27.0918 32.4938 76.7251C22.0862 73.9595 17.1198 70.6177 9.49378 62.2251C9.68065 54.9995 11.2429 47.3447 12.8789 42.2251M16.0491 34.7251C9.60983 35.5251 6 40.0584 5 42.2251H12.8789M16.0491 34.7251C14.8495 36.9173 13.7769 39.4153 12.8789 42.2251" stroke="#475ED7"/>
<path d="M34.9938 37.2251C17.9938 34.2251 19.4938 70.7251 19.4938 70.7251C23.6143 73.5737 26.0229 74.6714 30.4938 75.725C30.4938 75.725 51.9938 40.2251 34.9938 37.2251Z" fill="white" stroke="white"/>
<path d="M29.4938 41.7251C32.9938 43.2251 35.9938 43.2251 36.4938 41.7251" stroke="#4961DE" stroke-linecap="round"/>
<circle cx="28.4938" cy="33.7251" r="2" fill="white"/>
<circle cx="37.4938" cy="33.7251" r="2" fill="white"/>
<circle cx="28.9938" cy="34.2251" r="1.5" fill="#4961DE"/>
<circle cx="37.9938" cy="34.2251" r="1.5" fill="#4961DE"/>
<line x1="33.6119" y1="57.6847" x2="59.6119" y2="25.6847" stroke="#45DEE8"/>
<path d="M59.341 25.9839C60.0658 27.0239 60.6605 28.2452 60.777 29.5223C60.8281 30.0831 60.8293 30.6611 60.674 31.2067C60.5257 31.7276 60.268 32.2092 60.0802 32.7154C59.7289 33.6624 59.3346 34.7303 59.2138 35.7387C59.0384 37.2028 60.0318 38.4037 60.7467 39.5801C61.4002 40.6554 62.0778 41.7711 62.1402 43.0639C62.1836 43.9607 61.9549 44.8881 61.5707 45.6935C61.1108 46.6575 60.2327 47.3295 59.9772 48.4018C59.6778 49.6583 60.0869 50.8899 60.7043 51.9826C60.9721 52.4565 61.2531 52.9117 61.4677 53.4125" stroke="#45DEE8" stroke-linecap="round" stroke-linejoin="round"/>
<path d="M61.4999 61C59.6559 59.7892 57.9201 56.4259 61.4999 53.5C63.9501 56.0384 63.9993 58.4616 61.4999 61ZM61.4999 61L60 63.5H63L61.4999 61Z" stroke="#435AD8"/>
<path d="M29.5 53C25.5 53.0001 19 54 19 54V59L36 55C36 55 33.5 53 29.5 53Z" fill="#4961DE" stroke="#4961DE"/>
<circle cx="40" cy="40" r="38.5" stroke="#4961DE" stroke-width="3"/>
</svg>
